<?xml version="1.0"?>

<svg version="1.1" xmlns="http://www.w3.org/2000/svg" width="1183" height="1182" viewBox="0 0 1183 1182">
<path d="M0 0 C0.873 0.708 1.745 1.415 2.645 2.145 C22.488 18.988 33.418 42.319 40 67 C40.33 44.89 40.66 22.78 41 0 C71.047 -0.442 71.047 -0.442 85.934 -0.553 C93.972 -0.614 102.009 -0.691 110.046 -0.83 C116.412 -0.94 122.776 -1.011 129.143 -1.035 C132.511 -1.049 135.876 -1.082 139.243 -1.163 C162.505 -1.658 162.505 -1.658 168.457 3.605 C170.568 5.907 172.291 8.391 174 11 C175.201 12.407 176.421 13.797 177.668 15.164 C178.211 15.799 178.754 16.433 179.314 17.087 C182.48 20.679 185.909 24.01 189.312 27.375 C190.085 28.144 190.858 28.913 191.654 29.705 C194.1 32.139 196.55 34.57 199 37 C202.232 40.205 205.461 43.414 208.688 46.625 C209.417 47.346 210.146 48.067 210.898 48.81 C214.214 52.111 217.432 55.441 220.486 58.986 C224.294 63.403 228.387 67.495 232.531 71.594 C233.326 72.385 234.121 73.176 234.94 73.991 C237.457 76.496 239.978 78.999 242.5 81.5 C245.826 84.799 249.148 88.102 252.469 91.406 C252.844 91.778 252.844 91.778 254.745 93.658 C258.748 97.642 262.541 101.725 266.227 106.002 C269.432 109.614 272.88 112.981 276.312 116.375 C277.085 117.144 277.858 117.913 278.654 118.705 C281.1 121.139 283.55 123.57 286 126 C289.232 129.205 292.461 132.414 295.688 135.625 C296.417 136.346 297.146 137.067 297.898 137.81 C301.847 141.741 305.582 145.775 309.219 149.995 C312.428 153.608 315.877 156.979 319.312 160.375 C320.085 161.144 320.858 161.913 321.654 162.705 C324.1 165.139 326.55 167.57 329 170 C332.232 173.205 335.461 176.414 338.688 179.625 C339.417 180.346 340.146 181.067 340.898 181.81 C344.214 185.111 347.432 188.441 350.486 191.986 C354.294 196.403 358.387 200.495 362.531 204.594 C363.326 205.385 364.121 206.176 364.94 206.991 C367.457 209.496 369.978 211.999 372.5 214.5 C375.826 217.799 379.148 221.102 382.469 224.406 C382.844 224.778 382.844 224.778 384.745 226.658 C388.748 230.642 392.541 234.725 396.227 239.002 C399.432 242.614 402.88 245.981 406.312 249.375 C406.699 249.759 406.699 249.759 408.654 251.705 C411.1 254.139 413.55 256.57 416 259 C419.232 262.205 422.461 265.414 425.688 268.625 C426.417 269.346 427.146 270.067 427.898 270.81 C431.214 274.111 434.432 277.441 437.486 280.986 C441.294 285.403 445.387 289.495 449.531 293.594 C450.326 294.385 451.121 295.176 451.94 295.991 C454.457 298.496 456.978 300.999 459.5 303.5 C462.826 306.799 466.148 310.102 469.469 313.406 C469.844 313.778 469.844 313.778 471.745 315.658 C475.744 319.638 479.532 323.716 483.214 327.989 C486.49 331.678 490.016 335.118 493.523 338.586 C494.31 339.369 495.097 340.152 495.908 340.959 C498.394 343.433 500.884 345.905 503.375 348.375 C506.677 351.651 509.976 354.93 513.273 358.211 C514.034 358.963 514.794 359.715 515.577 360.49 C516.276 361.185 516.974 361.879 517.693 362.595 C518.309 363.206 518.925 363.817 519.56 364.447 C522.075 367.16 522.134 369.077 522.174 372.673 C522.187 373.659 522.2 374.644 522.213 375.66 C522.222 376.745 522.231 377.83 522.24 378.948 C522.253 380.088 522.266 381.228 522.28 382.402 C522.392 392.92 522.452 403.439 522.497 413.957 C522.53 421.73 522.589 429.502 522.684 437.274 C522.756 443.401 522.785 449.528 522.798 455.656 C522.81 458.26 522.836 460.864 522.876 463.468 C522.93 467.115 522.933 470.758 522.924 474.405 C522.951 475.48 522.978 476.555 523.006 477.663 C522.917 484.835 522.917 484.835 520.401 488.031 C518.347 489.825 516.211 491.405 514 493 C512.824 494.086 511.67 495.196 510.541 496.332 C509.977 496.893 509.412 497.455 508.83 498.034 C508.244 498.623 507.657 499.212 507.052 499.818 C506.409 500.46 505.766 501.101 505.103 501.763 C503.002 503.859 500.905 505.959 498.809 508.059 C497.335 509.532 495.861 511.005 494.387 512.478 C491.308 515.555 488.231 518.634 485.156 521.714 C481.23 525.646 477.299 529.573 473.368 533.498 C470.326 536.536 467.287 539.576 464.249 542.617 C462.801 544.066 461.353 545.513 459.904 546.96 C457.873 548.988 455.845 551.02 453.818 553.052 C453.229 553.639 452.641 554.226 452.034 554.83 C449.185 557.693 446.451 560.606 443.825 563.675 C439.888 568.192 435.706 572.427 431.461 576.653 C430.627 577.487 429.793 578.321 428.933 579.181 C426.638 581.475 424.341 583.767 422.043 586.058 C419.558 588.537 417.075 591.02 414.591 593.502 C410.294 597.797 405.994 602.09 401.694 606.381 C395.468 612.595 389.245 618.811 383.024 625.029 C372.917 635.128 362.808 645.226 352.698 655.322 C352.094 655.926 351.49 656.529 350.867 657.151 C345.964 662.047 341.062 666.943 336.159 671.838 C331.873 676.118 327.587 680.398 323.302 684.678 C322.698 685.28 322.095 685.883 321.473 686.504 C311.399 696.564 301.327 706.626 291.257 716.69 C285.053 722.89 278.847 729.087 272.638 735.283 C268.384 739.529 264.131 743.777 259.879 748.027 C257.429 750.476 254.978 752.924 252.525 755.369 C249.861 758.026 247.2 760.686 244.539 763.347 C243.771 764.112 243.002 764.877 242.21 765.665 C235.505 772.384 229.371 779.246 223.975 787.059 C205.175 813.048 188.613 825.382 162 847 C122.07 847 82.14 847 41 847 C41 727.87 41 608.74 41 486 C23.18 486 5.36 486 -13 486 C-13 605.13 -13 724.26 -13 847 C-52.6 847 -92.2 847 -133 847 C-133 727.87 -133 608.74 -133 486 C-233.98 486 -334.96 486 -439 486 C-439 367.343 -439 367.343 -420.364 348.251 C-419.002 346.889 -417.637 345.529 -416.27 344.172 C-415.508 343.412 -414.747 342.652 -413.963 341.869 C-412.344 340.255 -410.724 338.641 -409.103 337.028 C-406.531 334.469 -403.962 331.907 -401.394 329.343 C-395.953 323.914 -390.508 318.488 -385.062 313.062 C-378.72 306.743 -372.378 300.422 -366.041 294.097 C-363.523 291.585 -361.001 289.076 -358.479 286.566 C-356.927 285.018 -355.376 283.47 -353.824 281.922 C-353.133 281.236 -352.441 280.549 -351.729 279.842 C-348.545 276.658 -345.466 273.434 -342.524 270.024 C-338.803 265.715 -334.828 261.702 -330.789 257.691 C-329.999 256.903 -329.21 256.115 -328.396 255.303 C-326.695 253.605 -324.992 251.908 -323.288 250.213 C-320.586 247.524 -317.888 244.832 -315.19 242.139 C-308.977 235.938 -302.76 229.743 -296.542 223.547 C-290.382 217.409 -284.225 211.27 -278.07 205.126 C-275.421 202.483 -272.768 199.843 -270.116 197.203 C-268.481 195.572 -266.846 193.94 -265.211 192.309 C-264.846 191.946 -264.846 191.946 -262.997 190.11 C-259.035 186.148 -255.288 182.075 -251.628 177.833 C-249.289 175.2 -246.788 172.845 -244.201 170.452 C-243.099 169.426 -241.998 168.4 -240.897 167.373 C-240.326 166.843 -239.756 166.312 -239.168 165.765 C-235.461 162.297 -231.808 158.774 -228.147 155.257 C-224.946 152.187 -221.727 149.141 -218.46 146.141 C-195.475 124.974 -195.475 124.974 -195.011 116.16 C-195.404 111.889 -196.638 108.185 -198.262 104.239 C-199.585 100.224 -199.443 96.127 -199.375 91.938 C-199.362 91.066 -199.348 90.194 -199.334 89.295 C-198.629 58.076 -186.32 30.532 -165 8 C-164.229 7.165 -163.458 6.329 -162.664 5.469 C-148.023 -9.884 -129.226 -19.339 -109 -25 C-107.797 -25.342 -106.595 -25.683 -105.355 -26.035 C-67.967 -34.744 -29.079 -24.213 0 0 Z M40 112 C39.732 113.235 39.464 114.47 39.188 115.742 C31.912 147.767 14.691 175.268 -13.25 193.188 C-32.794 204.623 -52.451 211.188 -75.217 211.187 C-76.663 211.187 -78.11 211.191 -79.556 211.199 C-87.666 211.238 -95.457 211.029 -103.438 209.438 C-109.205 208.531 -109.205 208.531 -112.695 210.59 C-115.102 212.913 -117.028 215.303 -119 218 C-120.26 219.426 -121.53 220.844 -122.812 222.25 C-125.29 225.113 -127.631 228.039 -130 231 C-91.39 231 -52.78 231 -13 231 C-13 276.21 -13 321.42 -13 368 C4.82 368 22.64 368 41 368 C41 283.52 41 199.04 41 112 C40.67 112 40.34 112 40 112 Z M161 175 C161 238.69 161 302.38 161 368 C223.37 368 285.74 368 350 368 C343.262 360.139 343.262 360.139 339.504 356.441 C338.698 355.643 337.891 354.844 337.061 354.021 C335.399 352.386 333.738 350.751 332.076 349.115 C331.269 348.315 330.461 347.516 329.629 346.691 C328.908 345.982 328.187 345.272 327.444 344.541 C325.468 342.486 323.603 340.402 321.744 338.244 C317.849 333.76 313.69 329.581 309.469 325.406 C308.674 324.615 307.879 323.824 307.06 323.009 C304.543 320.504 302.022 318.001 299.5 315.5 C296.174 312.201 292.852 308.898 289.531 305.594 C288.78 304.851 288.029 304.108 287.255 303.342 C283.252 299.358 279.459 295.275 275.773 290.998 C272.568 287.386 269.12 284.019 265.688 280.625 C264.915 279.856 264.142 279.087 263.346 278.295 C260.9 275.861 258.45 273.43 256 271 C252.768 267.795 249.539 264.586 246.312 261.375 C245.948 261.014 245.948 261.014 244.102 259.19 C240.153 255.259 236.418 251.225 232.781 247.005 C229.572 243.392 226.123 240.021 222.688 236.625 C221.915 235.856 221.142 235.087 220.346 234.295 C217.9 231.861 215.45 229.43 213 227 C209.768 223.795 206.539 220.586 203.312 217.375 C202.583 216.654 201.854 215.933 201.102 215.19 C197.115 211.221 193.332 207.15 189.66 202.889 C187.11 199.987 184.4 197.257 181.664 194.531 C181.099 193.965 180.534 193.4 179.952 192.817 C178.776 191.639 177.598 190.463 176.418 189.288 C174.605 187.48 172.796 185.666 170.988 183.852 C169.839 182.703 168.689 181.554 167.539 180.406 C166.997 179.863 166.456 179.319 165.898 178.759 C162.115 175 162.115 175 161 175 Z M-136.92 236.793 C-137.543 237.413 -138.165 238.032 -138.806 238.671 C-139.15 239.015 -139.15 239.015 -140.887 240.758 C-141.608 241.476 -142.328 242.195 -143.07 242.936 C-145.469 245.33 -147.863 247.727 -150.258 250.125 C-151.921 251.788 -153.584 253.45 -155.248 255.112 C-158.745 258.608 -162.24 262.105 -165.734 265.604 C-170.2 270.075 -174.669 274.541 -179.141 279.007 C-182.583 282.445 -186.022 285.886 -189.461 289.327 C-191.107 290.974 -192.753 292.62 -194.401 294.264 C-196.715 296.576 -199.026 298.891 -201.336 301.207 C-202.011 301.88 -202.686 302.552 -203.381 303.245 C-207.207 307.089 -210.832 311.049 -214.378 315.153 C-216.614 317.699 -218.981 320.093 -221.385 322.482 C-221.873 322.969 -222.362 323.457 -222.865 323.959 C-223.909 324.999 -224.954 326.037 -226 327.075 C-227.654 328.716 -229.304 330.36 -230.954 332.005 C-234.446 335.485 -237.941 338.962 -241.438 342.438 C-245.515 346.492 -249.591 350.548 -253.663 354.608 C-255.292 356.23 -256.924 357.849 -258.556 359.469 C-259.545 360.453 -260.533 361.438 -261.521 362.424 C-262.388 363.285 -263.256 364.147 -264.149 365.035 C-266 367 -266 367 -266 368 C-222.11 368 -178.22 368 -133 368 C-133 323.78 -133 279.56 -133 234 C-134.769 234 -135.722 235.595 -136.92 236.793 Z M161 486 C161 548.04 161 610.08 161 674 C165.384 670.242 169.493 666.633 173.549 662.581 C174.056 662.076 174.562 661.571 175.084 661.05 C176.736 659.403 178.384 657.753 180.031 656.102 C181.193 654.941 182.354 653.78 183.516 652.62 C185.941 650.196 188.365 647.77 190.788 645.343 C193.874 642.251 196.965 639.163 200.057 636.077 C202.454 633.684 204.849 631.288 207.243 628.891 C208.381 627.753 209.519 626.615 210.658 625.478 C212.258 623.88 213.855 622.28 215.451 620.678 C216.356 619.773 217.261 618.867 218.193 617.934 C220.288 615.79 222.255 613.564 224.207 611.291 C228.643 606.181 233.435 601.44 238.23 596.672 C239.245 595.659 240.259 594.646 241.273 593.633 C243.443 591.467 245.614 589.302 247.787 587.138 C251.228 583.711 254.665 580.279 258.102 576.847 C266.018 568.943 273.938 561.045 281.859 553.146 C289.124 545.902 296.387 538.656 303.647 531.407 C307.057 528.001 310.47 524.598 313.885 521.197 C316.015 519.075 318.143 516.95 320.271 514.824 C321.25 513.846 322.231 512.869 323.213 511.893 C328.185 506.948 333.039 501.967 337.591 496.631 C339.435 494.497 341.413 492.524 343.438 490.562 C344.643 489.393 345.837 488.211 347 487 C347 486.67 347 486.34 347 486 C285.62 486 224.24 486 161 486 Z " fill="#AAD3E6" transform="translate(550,93)"></path>
<path d="M0 0 C0.329 1.102 0.657 2.204 0.996 3.34 C6.021 19.598 13.102 33.858 24 47 C24.708 47.86 25.415 48.72 26.145 49.605 C41.641 67.615 62.451 79.155 85 86 C78.653 93.581 71.993 101.007 65 108 C103.28 108.33 141.56 108.66 181 109 C181 154.21 181 199.42 181 246 C141.4 246 101.8 246 61 246 C60.67 202.11 60.34 158.22 60 113 C53.967 119.023 53.967 119.023 23.438 149.5 C19.638 153.29 15.838 157.081 11.924 160.986 C7.258 165.647 7.258 165.647 5.069 167.836 C3.552 169.351 2.034 170.866 0.515 172.38 C-1.797 174.684 -4.105 176.991 -6.412 179.299 C-7.08 179.963 -7.748 180.628 -8.437 181.312 C-14.487 187.376 -20.032 193.595 -25.061 200.539 C-39.925 220.927 -58.211 244.547 -84.373 249.202 C-106.726 252.521 -129.818 251.001 -152.279 249.673 C-162.304 249.092 -172.331 248.82 -182.369 248.567 C-202.931 248.04 -223.463 247.15 -244 246 C-239.692 239.867 -234.858 234.586 -229.535 229.324 C-228.707 228.497 -227.879 227.67 -227.025 226.818 C-224.304 224.103 -221.576 221.395 -218.848 218.688 C-216.944 216.79 -215.041 214.893 -213.139 212.995 C-208.65 208.517 -204.157 204.044 -199.661 199.573 C-191.619 191.576 -183.582 183.573 -175.551 175.564 C-172.288 172.31 -169.02 169.061 -165.751 165.813 C-164.032 164.101 -162.313 162.388 -160.594 160.676 C-159.824 159.913 -159.055 159.15 -158.262 158.364 C-154.257 154.367 -150.455 150.274 -146.762 145.988 C-143.589 142.408 -140.183 139.061 -136.789 135.691 C-135.999 134.903 -135.21 134.115 -134.396 133.303 C-132.695 131.605 -130.992 129.908 -129.288 128.213 C-126.586 125.524 -123.888 122.832 -121.19 120.139 C-114.977 113.938 -108.76 107.743 -102.542 101.547 C-96.382 95.409 -90.225 89.27 -84.07 83.126 C-81.421 80.483 -78.768 77.843 -76.116 75.203 C-74.481 73.572 -72.846 71.94 -71.211 70.309 C-70.48 69.583 -69.75 68.858 -68.997 68.11 C-65.039 64.153 -61.279 60.09 -57.624 55.852 C-55.277 53.175 -52.797 50.65 -50.28 48.135 C-49.756 47.607 -49.231 47.079 -48.691 46.535 C-46.988 44.823 -45.281 43.114 -43.574 41.406 C-42.378 40.207 -41.182 39.008 -39.987 37.808 C-37.496 35.312 -35.004 32.818 -32.51 30.325 C-29.31 27.125 -26.116 23.917 -22.924 20.708 C-20.464 18.237 -18 15.771 -15.535 13.306 C-14.354 12.125 -13.175 10.941 -11.998 9.756 C-10.361 8.109 -8.718 6.469 -7.073 4.83 C-6.586 4.338 -6.099 3.845 -5.598 3.338 C-2.228 0 -2.228 0 0 0 Z " fill="#2C4A7B" transform="translate(356,215)"></path>
<path d="M0 0 C3.42 1.615 5.652 3.413 8.312 6.125 C8.672 6.487 8.672 6.487 10.488 8.32 C12.431 10.393 14.289 12.49 16.137 14.644 C20.012 19.081 24.125 23.235 28.312 27.375 C29.085 28.144 29.858 28.913 30.654 29.705 C33.1 32.139 35.55 34.57 38 37 C41.232 40.205 44.461 43.414 47.688 46.625 C48.417 47.346 49.146 48.067 49.898 48.81 C53.214 52.111 56.432 55.441 59.486 58.986 C63.294 63.403 67.387 67.495 71.531 71.594 C72.326 72.385 73.121 73.176 73.94 73.991 C76.457 76.496 78.978 78.999 81.5 81.5 C84.826 84.799 88.148 88.102 91.469 91.406 C92.22 92.149 92.971 92.892 93.745 93.658 C97.748 97.642 101.541 101.725 105.227 106.002 C108.432 109.614 111.88 112.981 115.312 116.375 C116.085 117.144 116.858 117.913 117.654 118.705 C120.1 121.139 122.55 123.57 125 126 C128.232 129.205 131.461 132.414 134.688 135.625 C135.052 135.986 135.052 135.986 136.898 137.81 C140.847 141.741 144.582 145.775 148.219 149.995 C151.428 153.608 154.877 156.979 158.312 160.375 C159.085 161.144 159.858 161.913 160.654 162.705 C163.1 165.139 165.55 167.57 168 170 C171.232 173.205 174.461 176.414 177.688 179.625 C178.052 179.986 178.052 179.986 179.898 181.81 C183.214 185.111 186.432 188.441 189.486 191.986 C193.294 196.403 197.387 200.495 201.531 204.594 C202.326 205.385 203.121 206.176 203.94 206.991 C206.457 209.496 208.978 211.999 211.5 214.5 C214.826 217.799 218.148 221.102 221.469 224.406 C222.22 225.149 222.971 225.892 223.745 226.658 C227.748 230.642 231.541 234.725 235.227 239.002 C238.432 242.614 241.88 245.981 245.312 249.375 C246.085 250.144 246.858 250.913 247.654 251.705 C250.1 254.139 252.55 256.57 255 259 C258.232 262.205 261.461 265.414 264.688 268.625 C265.052 268.986 265.052 268.986 266.898 270.81 C270.214 274.111 273.432 277.441 276.486 280.986 C280.294 285.403 284.387 289.495 288.531 293.594 C289.326 294.385 290.121 295.176 290.94 295.991 C293.457 298.496 295.978 300.999 298.5 303.5 C301.826 306.799 305.148 310.102 308.469 313.406 C308.844 313.778 308.844 313.778 310.745 315.658 C314.117 319.013 317.394 322.395 320.498 326 C324.304 330.418 328.406 334.496 332.559 338.586 C334.177 340.191 335.794 341.797 337.412 343.402 C339.941 345.906 342.471 348.408 345.004 350.908 C347.464 353.338 349.918 355.774 352.371 358.211 C352.754 358.587 352.754 358.587 354.691 360.49 C355.389 361.185 356.087 361.879 356.806 362.595 C357.425 363.206 358.043 363.817 358.68 364.447 C360 366 360 366 360 368 C338.155 368.611 316.312 369.067 294.46 369.347 C284.311 369.481 274.167 369.662 264.021 369.961 C255.164 370.223 246.311 370.389 237.451 370.446 C232.768 370.48 228.097 370.557 223.417 370.749 C191.701 372 191.701 372 179.132 360.643 C173.179 354.898 168.057 348.527 163 342 C159.456 337.796 155.826 333.695 151.92 329.822 C151.202 329.108 150.485 328.394 149.745 327.658 C148.994 326.915 148.243 326.172 147.469 325.406 C146.674 324.615 145.879 323.824 145.06 323.009 C142.543 320.504 140.022 318.001 137.5 315.5 C134.174 312.201 130.852 308.898 127.531 305.594 C126.78 304.851 126.029 304.108 125.255 303.342 C121.252 299.358 117.459 295.275 113.773 290.998 C110.568 287.386 107.12 284.019 103.688 280.625 C102.915 279.856 102.142 279.087 101.346 278.295 C98.9 275.861 96.45 273.43 94 271 C90.768 267.795 87.539 264.586 84.312 261.375 C83.948 261.014 83.948 261.014 82.102 259.19 C78.153 255.259 74.418 251.225 70.781 247.005 C67.572 243.392 64.123 240.021 60.688 236.625 C59.915 235.856 59.142 235.087 58.346 234.295 C55.9 231.861 53.45 229.43 51 227 C47.768 223.795 44.539 220.586 41.312 217.375 C40.583 216.654 39.854 215.933 39.102 215.19 C38.405 214.496 37.707 213.801 36.988 213.086 C36.385 212.488 35.783 211.891 35.161 211.275 C33.954 210.004 32.765 208.711 31.66 207.349 C28.532 203.547 25.293 200.342 21.411 197.297 C10.753 188.919 -0.185 179.982 -2.297 165.914 C-3.396 156.325 -3.022 146.648 -2.636 137.026 C-2.471 132.192 -2.458 127.357 -2.428 122.521 C-2.347 113.405 -2.135 104.298 -1.872 95.186 C-1.58 84.795 -1.438 74.403 -1.308 64.009 C-1.038 42.668 -0.582 21.335 0 0 Z " fill="#2C4A7B" transform="translate(711,93)"></path>
<path d="M0 0 C1.706 0.003 3.411 0.001 5.117 -0.004 C9.727 -0.007 14.334 0.046 18.944 0.109 C23.768 0.166 28.593 0.171 33.418 0.181 C42.544 0.209 51.67 0.283 60.797 0.374 C71.191 0.474 81.585 0.524 91.979 0.569 C113.353 0.663 134.725 0.821 156.097 1.022 C152.067 5.859 147.847 10.409 143.377 14.84 C142.734 15.482 142.091 16.123 141.428 16.784 C140.043 18.166 138.656 19.546 137.269 20.925 C135.067 23.114 132.869 25.306 130.671 27.499 C125.213 32.944 119.75 38.383 114.287 43.822 C109.664 48.425 105.043 53.031 100.424 57.639 C98.269 59.788 96.11 61.934 93.952 64.08 C92.617 65.411 91.282 66.743 89.947 68.074 C89.355 68.661 88.763 69.248 88.154 69.852 C85.293 72.712 82.551 75.622 79.922 78.697 C75.985 83.214 71.804 87.449 67.558 91.675 C66.724 92.509 65.89 93.343 65.031 94.203 C62.736 96.497 60.439 98.789 58.141 101.08 C55.655 103.559 53.172 106.042 50.689 108.524 C46.391 112.818 42.092 117.111 37.791 121.403 C31.565 127.616 25.343 133.833 19.121 140.05 C9.014 150.15 -1.094 160.248 -11.204 170.344 C-11.809 170.947 -12.413 171.551 -13.036 172.173 C-17.938 177.069 -22.841 181.964 -27.744 186.86 C-32.029 191.14 -36.315 195.42 -40.601 199.699 C-41.204 200.302 -41.808 200.905 -42.43 201.526 C-52.504 211.586 -62.575 221.648 -72.646 231.712 C-78.85 237.911 -85.056 244.109 -91.264 250.305 C-95.519 254.551 -99.772 258.799 -104.023 263.048 C-106.474 265.497 -108.925 267.945 -111.378 270.391 C-114.042 273.048 -116.703 275.708 -119.363 278.369 C-120.132 279.134 -120.9 279.899 -121.692 280.687 C-125.739 284.741 -129.618 288.88 -133.342 293.234 C-136.034 296.318 -138.933 299.192 -141.832 302.08 C-142.485 302.735 -143.138 303.39 -143.81 304.064 C-145.94 306.198 -148.074 308.329 -150.207 310.459 C-151.697 311.95 -153.187 313.441 -154.677 314.931 C-157.783 318.039 -160.892 321.146 -164.001 324.251 C-167.996 328.24 -171.987 332.234 -175.976 336.229 C-179.044 339.3 -182.113 342.369 -185.184 345.437 C-186.658 346.91 -188.131 348.384 -189.603 349.858 C-191.649 351.907 -193.699 353.953 -195.75 355.998 C-196.056 356.305 -196.056 356.305 -197.604 357.859 C-201.788 362.022 -201.788 362.022 -202.903 362.022 C-204.301 340.494 -205.33 318.974 -205.96 297.409 C-206.26 287.386 -206.667 277.391 -207.354 267.386 C-212.145 196.125 -212.145 196.125 -189.753 170.501 C-177.851 157.243 -164.188 145.711 -150.055 134.915 C-145.763 131.631 -142.038 128.262 -138.617 124.069 C-134.935 119.672 -130.736 115.734 -126.672 111.694 C-125.658 110.681 -124.643 109.668 -123.629 108.655 C-121.46 106.489 -119.288 104.324 -117.116 102.16 C-113.675 98.732 -110.237 95.301 -106.8 91.868 C-98.885 83.965 -90.964 76.066 -83.043 68.168 C-75.779 60.923 -68.515 53.678 -61.256 46.429 C-57.846 43.023 -54.433 39.62 -51.018 36.219 C-48.888 34.096 -46.76 31.971 -44.632 29.846 C-43.652 28.868 -42.672 27.891 -41.69 26.915 C-37.444 22.692 -33.233 18.48 -29.326 13.939 C-28.767 13.31 -28.209 12.681 -27.633 12.034 C-26.39 10.589 -25.208 9.091 -24.068 7.563 C-17.246 -0.696 -9.892 -0.207 0 0 Z " fill="#2C4A7B" transform="translate(913.902587890625,577.978271484375)"></path>
<path d="M0 0 C2.044 1.621 4.054 3.273 6.062 4.938 C6.449 5.253 6.449 5.253 8.402 6.848 C32.221 26.917 45.417 57.367 48.062 87.938 C50.219 118.331 41.193 149.021 21.883 172.75 C12.706 183.291 3.082 192.694 -8.938 199.938 C-9.509 200.284 -10.081 200.63 -10.669 200.986 C-17.798 205.234 -25.079 208.581 -32.938 211.25 C-33.612 211.48 -34.286 211.711 -34.981 211.948 C-47.273 215.877 -59.32 217.477 -72.188 217.375 C-72.859 217.372 -73.53 217.369 -74.221 217.366 C-85.518 217.29 -96.131 216.308 -106.938 212.938 C-107.628 212.723 -108.318 212.509 -109.03 212.288 C-139.664 202.424 -164.919 181.36 -179.938 152.938 C-194.891 123.543 -197.339 89.28 -187.312 57.875 C-182.546 43.914 -175.397 31.258 -165.938 19.938 C-165.522 19.44 -165.522 19.44 -163.418 16.922 C-123.35 -29.508 -48.716 -37.521 0 0 Z " fill="#2C4A7B" transform="translate(334.9375,637.0625)"></path>
<path d="M0 0 C39.6 0 79.2 0 120 0 C120 119.13 120 238.26 120 361 C80.4 361 40.8 361 0 361 C0 241.87 0 122.74 0 0 Z " fill="#2C4A7B" transform="translate(417,579)"></path>
<path d="M0 0 C0.605 0.455 1.209 0.91 1.832 1.379 C11.945 10.122 16.696 25.193 18 38 C19.32 56.405 16.704 74.411 5.266 89.387 C-0.996 96.61 -7.939 101.07 -17 104 C-12.061 109.556 -6.435 112.928 1 114 C4.287 113.992 7.559 113.873 10.844 113.742 C14.437 114.036 16.174 114.792 19 117 C21.452 120.698 22.163 124.023 21.438 128.375 C19.803 131.359 19.217 132.044 16 133 C0.556 136.089 -13.674 133.059 -27 125 C-32.724 121.01 -36.285 116.707 -39.875 110.75 C-43.352 105.234 -46.077 103.559 -52.262 101.84 C-62.569 98.679 -70.462 89.837 -75.648 80.754 C-83.757 64.231 -85.187 41.425 -80.035 23.742 C-74.786 9.837 -67.395 -0.125 -54 -7 C-35.895 -14.274 -15.397 -11.995 0 0 Z M-48.148 15.125 C-56.664 23.749 -59.05 35.326 -59.312 47.125 C-58.925 58.797 -57.105 70.273 -48.969 79.238 C-42.499 85.068 -38.003 86.475 -29.262 86.309 C-23.128 85.728 -19.06 83.387 -14.812 79 C-5.245 66.923 -4.928 51.657 -6 37 C-7.524 27.137 -11.655 19.692 -19.219 13.297 C-28.307 6.68 -39.762 8.175 -48.148 15.125 Z " fill="#2C4A7B" transform="translate(497,1007)"></path>
<path d="M0 0 C0.773 -0.008 1.547 -0.015 2.344 -0.023 C3.138 -0 3.932 0.023 4.75 0.047 C5.544 0.024 6.338 0 7.156 -0.023 C7.543 -0.02 7.543 -0.02 9.5 0 C10.196 0.007 10.892 0.014 11.609 0.021 C16.945 1.956 19.839 8.436 22.316 13.172 C22.474 13.471 22.474 13.471 23.273 14.983 C24.292 16.918 25.302 18.857 26.312 20.797 C27.382 22.832 28.453 24.865 29.525 26.899 C30.242 28.26 30.959 29.622 31.675 30.984 C34.768 36.861 37.97 42.675 41.188 48.484 C46.469 58.064 51.179 67.863 55.75 77.797 C55.715 77.228 55.715 77.228 55.54 74.351 C54.783 61.158 54.533 47.987 54.51 34.773 C54.5 31.311 54.469 27.85 54.438 24.389 C54.431 22.172 54.426 19.955 54.422 17.738 C54.41 16.711 54.397 15.684 54.384 14.626 C54.412 5.705 54.412 5.705 57.75 1.797 C60.441 0.451 62.622 0.591 65.625 0.547 C66.674 0.521 67.724 0.495 68.805 0.469 C72.105 0.836 73.417 1.474 75.75 3.797 C76.648 6.492 76.882 8.07 76.904 10.838 C76.913 11.658 76.921 12.478 76.93 13.323 C76.934 14.219 76.938 15.115 76.943 16.038 C76.947 16.512 76.947 16.512 76.968 18.907 C76.992 22.043 77.009 25.18 77.023 28.316 C77.029 29.387 77.034 30.458 77.04 31.562 C77.066 37.229 77.086 42.896 77.1 48.564 C77.117 54.418 77.162 60.272 77.212 66.127 C77.246 70.628 77.258 75.129 77.263 79.631 C77.27 81.789 77.285 83.947 77.309 86.105 C77.341 89.126 77.341 92.146 77.333 95.167 C77.35 96.057 77.366 96.947 77.383 97.864 C77.34 102.15 77.084 104.935 74.339 108.336 C70.58 111.909 68.611 111.999 63.5 112.109 C62.381 112.147 61.262 112.184 60.109 112.223 C55.921 111.692 53.966 110.515 50.75 107.797 C49.231 105.619 48.019 103.633 46.812 101.297 C46.63 100.959 46.63 100.959 45.707 99.247 C44.864 97.68 44.029 96.11 43.199 94.537 C41.557 91.433 39.891 88.343 38.223 85.254 C34.372 78.116 30.556 70.959 26.75 63.797 C26.194 62.75 25.637 61.703 25.064 60.625 C23.559 57.789 22.059 54.95 20.562 52.109 C20.13 51.292 19.697 50.474 19.25 49.632 C16.529 44.443 14.065 39.179 11.75 33.797 C11.818 34.768 11.886 35.739 11.956 36.739 C12.815 49.945 13.035 63.147 13.1 76.379 C13.117 78.889 13.144 81.4 13.182 83.91 C13.237 87.577 13.259 91.243 13.273 94.91 C13.296 96.031 13.319 97.152 13.342 98.306 C13.321 106.017 13.321 106.017 10.403 110 C7.243 112.14 5.479 112.441 1.688 112.359 C1.176 112.36 1.176 112.36 -1.41 112.363 C-4.898 111.668 -6.076 110.563 -8.25 107.797 C-9.148 105.102 -9.382 103.523 -9.404 100.756 C-9.413 99.936 -9.421 99.116 -9.43 98.271 C-9.434 97.375 -9.438 96.479 -9.443 95.555 C-9.451 94.609 -9.459 93.662 -9.468 92.687 C-9.492 89.55 -9.509 86.414 -9.523 83.277 C-9.529 82.206 -9.534 81.135 -9.54 80.032 C-9.566 74.365 -9.586 68.697 -9.6 63.03 C-9.617 57.175 -9.662 51.321 -9.712 45.467 C-9.746 40.966 -9.758 36.465 -9.763 31.963 C-9.77 29.805 -9.785 27.647 -9.809 25.489 C-9.841 22.468 -9.841 19.448 -9.833 16.427 C-9.85 15.536 -9.866 14.646 -9.883 13.729 C-9.84 9.446 -9.579 6.651 -6.847 3.244 C-3.44 0.033 -3.44 0.033 0 0 Z " fill="#2C4A7B" transform="translate(702.25,998.203125)"></path>
<path d="M0 0 C12.924 13.672 14.856 32.759 14.401 50.647 C13.769 66.046 8.034 80.333 -3.074 91.133 C-14.312 100.695 -27.257 103.563 -41.768 102.541 C-54.115 101.375 -64.579 95.752 -73.062 86.777 C-83.252 74.457 -85.87 60.326 -85.938 44.812 C-85.958 43.656 -85.979 42.5 -86 41.309 C-86.071 25.42 -82.127 10.579 -70.949 -1.152 C-50.574 -19.487 -19.869 -18.173 0 0 Z M-51.836 11.938 C-60.324 20.533 -62.686 32.058 -63.062 43.812 C-62.721 54.923 -60.675 66.611 -52.727 74.844 C-46.161 80.799 -41.878 82.291 -32.949 82.121 C-26.674 81.527 -22.668 79.15 -18.438 74.562 C-11.286 65.429 -9.29 55.473 -9.312 44.062 C-9.314 43.193 -9.316 42.323 -9.317 41.427 C-9.513 31.08 -11.639 20.663 -19.355 13.199 C-29.165 4.435 -41.395 3.285 -51.836 11.938 Z " fill="#2C4A7B" transform="translate(1099.6875,1010.1875)"></path>
<path d="M0 0 C3.723 2.94 5.706 5.846 6.875 10.438 C6.916 11.283 6.957 12.129 7 13 C2.371 17.699 -2.832 18.405 -9.062 19.625 C-10.036 19.829 -11.01 20.032 -12.014 20.242 C-18.99 21.679 -25.963 22.827 -33 24 C-33.33 34.23 -33.66 44.46 -34 55 C-30.232 54.965 -26.464 54.93 -22.582 54.895 C-18.932 54.871 -15.281 54.853 -11.631 54.835 C-9.094 54.82 -6.558 54.8 -4.021 54.774 C-0.375 54.737 3.271 54.72 6.918 54.707 C8.051 54.692 9.185 54.676 10.353 54.66 C11.414 54.66 12.474 54.66 13.567 54.659 C14.498 54.653 15.428 54.646 16.387 54.639 C19.547 55.075 21.427 56.144 24 58 C25.72 61.439 25.382 65.232 25 69 C23.273 72.289 22.558 72.814 19 74 C17.267 74.088 15.53 74.118 13.794 74.114 C13.264 74.113 13.264 74.113 10.579 74.113 C9.436 74.108 8.292 74.103 7.113 74.098 C5.941 74.096 4.769 74.095 3.561 74.093 C-0.188 74.088 -3.938 74.075 -7.688 74.062 C-10.227 74.057 -12.767 74.053 -15.307 74.049 C-21.538 74.038 -27.769 74.021 -34 74 C-33.989 74.743 -33.978 75.486 -33.966 76.251 C-33.866 83.254 -33.79 90.258 -33.741 97.262 C-33.715 100.863 -33.679 104.463 -33.623 108.063 C-33.568 111.539 -33.539 115.014 -33.526 118.49 C-33.512 120.46 -33.473 122.429 -33.434 124.399 C-33.433 125.6 -33.433 126.801 -33.432 128.038 C-33.421 129.095 -33.41 130.152 -33.399 131.241 C-34 134 -34 134 -36.393 136.339 C-39.079 138.05 -40.366 138.544 -43.5 138.5 C-43.866 138.505 -43.866 138.505 -45.719 138.531 C-48.979 137.772 -50.617 136.33 -53 134 C-53.601 131.241 -53.601 131.241 -53.568 128.038 C-53.567 126.837 -53.567 125.636 -53.566 124.399 C-53.541 123.107 -53.515 121.815 -53.488 120.484 C-53.479 119.145 -53.472 117.805 -53.467 116.466 C-53.448 112.947 -53.399 109.43 -53.343 105.912 C-53.292 102.319 -53.269 98.726 -53.244 95.133 C-53.191 88.088 -53.105 81.044 -53 74 C-53.64 74.009 -54.281 74.018 -54.94 74.027 C-61.608 74.115 -68.275 74.176 -74.942 74.22 C-77.43 74.24 -79.918 74.267 -82.406 74.302 C-85.983 74.35 -89.559 74.373 -93.137 74.391 C-93.693 74.401 -93.693 74.401 -96.505 74.453 C-104.214 74.455 -104.214 74.455 -108.204 72.144 C-110.484 69.422 -110.615 67.955 -110.5 64.438 C-110.49 63.487 -110.479 62.537 -110.469 61.559 C-109.934 58.641 -109.358 57.741 -107 56 C-104.021 55.007 -102.085 54.879 -98.978 54.886 C-97.957 54.887 -96.936 54.887 -95.884 54.887 C-94.784 54.892 -93.684 54.897 -92.551 54.902 C-91.423 54.904 -90.295 54.905 -89.133 54.907 C-85.526 54.912 -81.919 54.925 -78.312 54.938 C-75.869 54.943 -73.426 54.947 -70.982 54.951 C-64.988 54.961 -58.994 54.981 -53 55 C-53.33 45.76 -53.66 36.52 -54 27 C-58.166 27.495 -62.332 27.99 -66.625 28.5 C-92.557 31.403 -92.557 31.403 -98.375 28.062 C-100.249 24.531 -100.597 22.029 -100.664 18.086 C-100 16 -100 16 -98.077 14.457 C-93.822 12.442 -89.752 12.091 -85.102 11.605 C-83.089 11.373 -81.076 11.14 -79.062 10.907 C-78.011 10.79 -76.959 10.673 -75.875 10.552 C-60.157 8.79 -44.512 6.87 -29 3.75 C-27.776 3.504 -26.552 3.258 -25.292 3.005 C-20.648 2.043 -16.034 1.03 -11.445 -0.168 C-7.252 -1.181 -4.061 -1.574 0 0 Z " fill="#2C4A7B" transform="translate(180,985)"></path>
<path d="M0 0 C0.919 -0.012 1.837 -0.025 2.784 -0.038 C3.275 -0.029 3.275 -0.029 5.764 0.018 C6.791 0.017 7.819 0.016 8.877 0.015 C11.053 0.02 13.228 0.039 15.403 0.072 C18.694 0.119 21.981 0.113 25.271 0.1 C39.316 0.138 53.6 0.188 64.232 10.745 C70.938 18.362 72.129 26.811 72.232 36.745 C71.419 46.682 68.386 54.324 61.115 61.202 C58.33 63.484 55.438 65.109 52.232 66.745 C55.277 72.406 58.372 78.026 61.627 83.569 C62.19 84.535 62.752 85.501 63.332 86.497 C64.484 88.471 65.646 90.44 66.816 92.403 C70 97.91 72.37 102.296 72.232 108.745 C71.283 110.713 71.283 110.713 69.232 111.745 C66.524 112.099 64.126 112.254 61.42 112.245 C60.721 112.273 60.021 112.301 59.301 112.331 C58.956 112.332 58.956 112.332 57.213 112.338 C56.593 112.345 55.973 112.353 55.335 112.36 C50.612 110.978 47.442 107.433 45.022 103.319 C44.334 102.03 43.66 100.734 42.998 99.432 C42.634 98.741 42.27 98.049 41.895 97.337 C40.745 95.146 39.614 92.946 38.482 90.745 C37.709 89.267 36.934 87.791 36.158 86.315 C33.303 80.854 30.525 75.477 28.232 69.745 C23.282 69.745 18.332 69.745 13.232 69.745 C13.259 70.839 13.285 71.934 13.312 73.062 C13.402 77.134 13.46 81.205 13.507 85.278 C13.532 87.039 13.566 88.799 13.61 90.559 C13.67 93.094 13.699 95.627 13.721 98.163 C13.747 98.946 13.772 99.73 13.799 100.537 C13.801 104.76 13.586 106.293 10.885 109.742 C6.905 112.747 3.88 112.376 -0.943 112.174 C-4.569 111.623 -6.428 110.569 -8.768 107.745 C-9.666 105.05 -9.9 103.471 -9.921 100.704 C-9.93 99.884 -9.939 99.064 -9.948 98.219 C-9.952 97.323 -9.956 96.426 -9.96 95.503 C-9.969 94.557 -9.977 93.61 -9.985 92.635 C-10.01 89.498 -10.027 86.362 -10.041 83.225 C-10.046 82.154 -10.052 81.083 -10.057 79.98 C-10.084 74.312 -10.103 68.645 -10.118 62.978 C-10.134 57.123 -10.179 51.269 -10.23 45.415 C-10.264 40.914 -10.275 36.412 -10.281 31.911 C-10.288 29.753 -10.303 27.595 -10.327 25.437 C-10.358 22.415 -10.358 19.396 -10.351 16.374 C-10.367 15.484 -10.384 14.594 -10.401 13.677 C-10.359 9.498 -10.102 6.583 -7.529 3.189 C-4.658 0.647 -3.733 -0.006 0 0 Z M13.232 18.745 C13.232 29.635 13.232 40.525 13.232 51.745 C14.79 51.776 14.79 51.776 22.67 51.932 C23.632 51.959 24.594 51.987 25.586 52.015 C32.38 52.079 38.887 51.357 44.389 47.061 C44.61 46.772 44.61 46.772 45.732 45.307 C46.196 44.731 46.661 44.155 47.139 43.561 C49.571 39.521 49.552 35.373 49.232 30.745 C47.491 26.07 45.441 23.423 41.232 20.745 C35.212 18.525 29.661 18.507 23.295 18.62 C21.635 18.64 21.635 18.64 13.232 18.745 Z " fill="#2C4A7B" transform="translate(922.767578125,998.25537109375)"></path>
<path d="M0 0 C3.188 1.438 3.188 1.438 5 4 C6.207 9.289 4.844 13.842 2.965 18.809 C2.782 19.297 2.782 19.297 1.855 21.767 C1.573 22.504 1.291 23.241 1 24 C1.348 24.002 1.348 24.002 3.108 24.012 C6.281 24.045 9.452 24.116 12.625 24.188 C13.719 24.193 14.814 24.199 15.941 24.205 C17.005 24.234 18.068 24.263 19.164 24.293 C20.138 24.309 21.112 24.324 22.116 24.341 C25.966 25.221 28.593 26.912 31 30 C31.873 33.039 31.821 35.971 31.776 39.117 C31.787 40.027 31.797 40.936 31.808 41.873 C31.835 44.875 31.817 47.874 31.797 50.875 C31.801 52.963 31.807 55.052 31.814 57.14 C31.823 61.515 31.81 65.889 31.782 70.264 C31.748 75.87 31.768 81.474 31.804 87.08 C31.825 91.392 31.818 95.703 31.803 100.015 C31.799 102.082 31.804 104.149 31.818 106.216 C31.833 109.106 31.81 111.993 31.776 114.883 C31.782 115.309 31.782 115.309 31.813 117.468 C31.694 123.029 31.694 123.029 29.82 125.65 C26.455 128.746 23.56 129.629 19.09 129.647 C17.948 129.663 16.807 129.678 15.631 129.695 C15.022 129.69 15.022 129.69 11.938 129.664 C11.305 129.666 11.305 129.666 8.105 129.679 C5.435 129.682 2.767 129.675 0.097 129.652 C-3.313 129.623 -6.721 129.64 -10.131 129.67 C-13.4 129.692 -16.669 129.676 -19.938 129.664 C-21.156 129.674 -22.375 129.684 -23.631 129.695 C-24.772 129.679 -25.914 129.663 -27.09 129.647 C-28.089 129.643 -29.088 129.639 -30.117 129.635 C-33.998 128.78 -36.673 127.191 -39 124 C-39.855 121.118 -39.838 118.365 -39.805 115.374 C-39.819 114.516 -39.832 113.658 -39.847 112.775 C-39.885 109.946 -39.881 107.118 -39.875 104.289 C-39.891 102.318 -39.91 100.346 -39.931 98.375 C-39.969 94.244 -39.987 90.113 -39.99 85.982 C-39.994 80.697 -40.032 75.413 -40.084 70.128 C-40.122 66.057 -40.149 61.985 -40.171 57.914 C-40.182 55.966 -40.195 54.018 -40.21 52.07 C-40.227 49.341 -40.231 46.614 -40.23 43.885 C-40.238 43.086 -40.245 42.287 -40.252 41.463 C-40.233 36.607 -39.674 32.578 -38 28 C-34.154 24.584 -30.687 24.672 -25.688 24.812 C-25.06 24.826 -25.06 24.826 -21.887 24.895 C-20.934 24.929 -19.981 24.964 -19 25 C-18.879 24.238 -18.758 23.476 -18.633 22.691 C-18.108 19.457 -17.558 16.228 -17 13 C-16.856 12.122 -16.711 11.244 -16.562 10.34 C-15.941 7.015 -15.224 4.4 -13.562 1.438 C-9.239 -0.988 -4.821 -0.677 0 0 Z M-21 43 C-22.279 45.557 -22.113 47.367 -22.098 50.227 C-22.095 51.155 -22.093 52.084 -22.09 53.042 C-22.081 54.224 -22.072 55.407 -22.062 56.625 C-22.042 60.379 -22.021 64.132 -22 68 C-10.45 68 1.1 68 13 68 C13.021 64.246 13.041 60.493 13.062 56.625 C13.072 55.442 13.081 54.26 13.09 53.042 C13.093 52.113 13.095 51.184 13.098 50.227 C13.103 49.273 13.108 48.32 13.114 47.338 C13 45 13 45 12 43 C1.11 43 -9.78 43 -21 43 Z M-22 85 C-22.041 88.733 -22.082 92.466 -22.125 96.312 C-22.143 97.486 -22.161 98.659 -22.18 99.868 C-22.185 100.795 -22.19 101.721 -22.195 102.676 C-22.206 103.624 -22.216 104.572 -22.227 105.548 C-22 108 -22 108 -20 111 C-17.517 111.267 -15.285 111.349 -12.805 111.293 C-12.097 111.289 -11.39 111.284 -10.661 111.28 C-8.399 111.263 -6.137 111.226 -3.875 111.188 C-2.342 111.172 -0.81 111.159 0.723 111.146 C4.482 111.113 8.241 111.062 12 111 C13.305 108.39 13.113 106.473 13.098 103.555 C13.095 102.585 13.093 101.616 13.09 100.617 C13.081 99.382 13.072 98.147 13.062 96.875 C13.042 92.956 13.021 89.037 13 85 C1.45 85 -10.1 85 -22 85 Z " fill="#2C4A7B" transform="translate(324,984)"></path>
<path d="M0 0 C0.864 -0.005 1.727 -0.01 2.617 -0.016 C3.062 -0.008 3.062 -0.008 5.312 0.031 C6.202 0.016 7.091 0 8.008 -0.016 C8.871 -0.01 9.735 -0.005 10.625 0 C11.405 0.005 12.185 0.009 12.988 0.014 C16.3 0.751 17.921 2.145 20.312 4.531 C21.68 7.354 21.68 7.354 22.758 10.723 C22.966 11.356 23.174 11.989 23.388 12.642 C24.087 14.787 24.763 16.94 25.438 19.094 C25.933 20.637 26.43 22.18 26.929 23.722 C28.066 27.248 29.192 30.777 30.315 34.308 C32.177 40.135 34.089 45.946 36.009 51.754 C37.546 56.407 39.073 61.064 40.597 65.722 C41.685 69.045 42.776 72.367 43.877 75.686 C45.126 79.457 46.353 83.234 47.578 87.012 C47.956 88.142 48.333 89.272 48.722 90.436 C50.731 96.692 52.022 101.952 51.312 108.531 C49.266 111.17 48.588 111.49 45.168 112 C43.958 112.01 42.747 112.021 41.5 112.031 C40.297 112.062 39.095 112.093 37.855 112.125 C33.497 111.395 30.871 110.092 28.312 106.531 C26.778 102.845 25.847 99.1 24.938 95.219 C24.071 91.692 23.205 88.165 22.312 84.531 C16.538 84.366 16.538 84.366 -12.688 83.531 C-13.347 86.831 -14.008 90.131 -14.688 93.531 C-16.1 99.286 -17.622 104.709 -20.625 109.844 C-25.616 112.594 -31.136 112.559 -36.688 111.531 C-39.09 109.996 -39.09 109.996 -40.688 107.531 C-41.631 99.517 -38.687 92.32 -36.191 84.824 C-35.719 83.376 -35.247 81.928 -34.776 80.479 C-33.533 76.66 -32.275 72.846 -31.014 69.034 C-29.767 65.254 -28.533 61.469 -27.299 57.686 C-25.138 51.065 -22.953 44.453 -20.761 37.843 C-19.395 33.71 -18.058 29.569 -16.752 25.417 C-16.147 23.499 -15.535 21.583 -14.923 19.668 C-14.181 17.347 -13.452 15.022 -12.739 12.692 C-10.48 5.693 -8.306 0.048 0 0 Z M4.312 18.531 C4.127 19.28 3.941 20.029 3.749 20.8 C0.037 35.738 -3.729 50.656 -7.688 65.531 C0.562 65.531 8.812 65.531 17.312 65.531 C16.02 59.071 14.671 52.791 12.93 46.461 C12.711 45.654 12.491 44.847 12.266 44.015 C11.576 41.478 10.882 38.942 10.188 36.406 C9.715 34.669 9.242 32.932 8.77 31.195 C7.621 26.973 6.468 22.752 5.312 18.531 C4.982 18.531 4.653 18.531 4.312 18.531 Z " fill="#2C4A7B" transform="translate(622.6875,998.46875)"></path>
<path d="M0 0 C0.439 -0.006 0.439 -0.006 2.662 -0.038 C3.602 -0.019 4.542 -0.001 5.51 0.018 C6.493 0.017 7.476 0.016 8.489 0.015 C10.57 0.02 12.651 0.039 14.732 0.072 C17.878 0.119 21.02 0.113 24.166 0.1 C38.26 0.14 52.397 0.725 63.416 10.745 C70.932 19.476 72.04 28.619 71.729 39.764 C71.034 48.605 67.673 56.404 61.416 62.745 C52.752 69.937 42.763 72.902 31.58 72.842 C30.517 72.839 29.453 72.836 28.357 72.833 C27.263 72.824 26.169 72.816 25.041 72.807 C23.923 72.803 22.806 72.798 21.654 72.793 C18.908 72.782 16.162 72.765 13.416 72.745 C13.442 73.748 13.468 74.752 13.495 75.786 C13.586 79.523 13.643 83.259 13.691 86.996 C13.716 88.611 13.75 90.226 13.793 91.841 C13.854 94.167 13.882 96.492 13.904 98.819 C13.93 99.537 13.956 100.255 13.982 100.994 C13.985 104.923 13.542 106.585 11.069 109.701 C7.097 112.761 4.085 112.377 -0.76 112.174 C-4.386 111.623 -6.244 110.569 -8.584 107.745 C-9.482 105.05 -9.716 103.471 -9.738 100.704 C-9.746 99.884 -9.755 99.064 -9.764 98.219 C-9.768 97.323 -9.772 96.426 -9.777 95.503 C-9.785 94.557 -9.793 93.61 -9.802 92.635 C-9.826 89.498 -9.843 86.362 -9.857 83.225 C-9.863 82.154 -9.868 81.083 -9.874 79.98 C-9.9 74.312 -9.92 68.645 -9.934 62.978 C-9.951 57.123 -9.996 51.269 -10.046 45.415 C-10.08 40.914 -10.092 36.412 -10.097 31.911 C-10.104 29.753 -10.119 27.595 -10.143 25.437 C-10.175 22.415 -10.175 19.396 -10.167 16.374 C-10.184 15.484 -10.2 14.594 -10.217 13.677 C-10.175 9.49 -9.918 6.584 -7.334 3.189 C-4.529 0.696 -3.646 -0.006 0 0 Z M13.416 18.745 C13.416 30.625 13.416 42.505 13.416 54.745 C37.93 54.745 37.93 54.745 44.416 48.745 C48.549 43.524 49.038 39.163 48.807 32.557 C48.147 27.81 45.947 25.276 42.666 21.995 C36.313 18.465 29.478 18.48 22.416 18.62 C20.931 18.64 20.931 18.64 13.416 18.745 Z " fill="#2C4A7B" transform="translate(818.583984375,998.25537109375)"></path>
<path d="M0 0 C5.081 2.65 8.772 6.506 12.707 10.605 C13.426 11.334 14.144 12.062 14.885 12.812 C19.748 17.782 21.611 20.15 21.566 27.191 C21.27 29.48 21.27 29.48 19.332 32.355 C16.746 36.274 16.752 39.187 16.641 43.797 C16.179 47.135 15.486 48.925 13.27 51.48 C10.133 51.969 10.133 51.969 6.582 51.793 C5.403 51.748 4.223 51.703 3.008 51.656 C2.556 51.627 2.556 51.627 0.27 51.48 C0.27 54.78 0.27 58.08 0.27 61.48 C1.234 61.457 2.198 61.434 3.191 61.41 C3.823 61.401 3.823 61.401 7.02 61.355 C8.272 61.332 9.525 61.309 10.816 61.285 C14.009 61.466 15.68 61.683 18.27 63.48 C19.433 65.807 19.468 67.328 19.52 69.918 C19.532 70.309 19.532 70.309 19.598 72.289 C19.189 75.017 18.437 75.825 16.27 77.48 C13.27 78.48 13.27 78.48 0.27 78.48 C0.6 89.7 0.93 100.92 1.27 112.48 C4.9 111.82 8.53 111.16 12.27 110.48 C16.332 110.668 16.332 110.668 19.27 111.48 C21.335 114.578 21.564 115.435 21.582 118.98 C21.599 119.754 21.616 120.527 21.633 121.324 C21.173 124.051 20.382 124.738 18.27 126.48 C16.285 127.183 16.285 127.183 14.001 127.647 C13.143 127.827 12.285 128.007 11.401 128.193 C10.938 128.283 10.938 128.283 8.598 128.742 C7.642 128.938 6.686 129.133 5.701 129.335 C3.678 129.746 1.654 130.152 -0.371 130.552 C-3.457 131.163 -6.539 131.794 -9.621 132.428 C-11.59 132.825 -13.558 133.222 -15.527 133.617 C-15.986 133.711 -15.986 133.711 -18.306 134.185 C-23.202 135.144 -27.739 135.813 -32.73 135.48 C-35.346 133.649 -35.7 132.571 -36.73 129.48 C-36.969 127.543 -36.969 127.543 -37.043 125.48 C-37.08 124.8 -37.118 124.119 -37.156 123.418 C-36.73 121.48 -36.73 121.48 -32.73 118.48 C-27.45 117.49 -22.17 116.5 -16.73 115.48 C-16.4 103.27 -16.07 91.06 -15.73 78.48 C-20.35 78.48 -24.97 78.48 -29.73 78.48 C-34.73 76.48 -34.73 76.48 -36.105 74.855 C-37.027 71.355 -36.954 67.906 -35.73 64.48 C-33.191 61.619 -31.706 61.479 -27.84 61.188 C-26.386 61.207 -24.933 61.243 -23.48 61.293 C-23.108 61.3 -23.108 61.3 -21.223 61.334 C-19.392 61.369 -17.561 61.423 -15.73 61.48 C-15.73 58.18 -15.73 54.88 -15.73 51.48 C-19.69 51.48 -23.65 51.48 -27.73 51.48 C-28.39 49.83 -29.05 48.18 -29.73 46.48 C-31.395 46.139 -33.062 45.806 -34.73 45.48 C-38.005 41.98 -38.605 37.914 -38.461 33.262 C-37.373 29.119 -34.873 26.556 -32 23.455 C-27.505 18.529 -24.394 13.069 -21.307 7.179 C-16.747 -1.15 -8.838 -4.185 0 0 Z M-6.73 16.48 C-8.358 18.895 -9.983 21.312 -11.605 23.73 C-12.066 24.412 -12.526 25.094 -13 25.797 C-13.445 26.461 -13.889 27.125 -14.348 27.809 C-14.756 28.416 -15.165 29.024 -15.585 29.649 C-16.756 31.522 -17.743 33.505 -18.73 35.48 C-9.49 35.48 -0.25 35.48 9.27 35.48 C7.431 31.803 5.543 29.144 2.957 25.98 C2.198 25.042 1.439 24.104 0.656 23.137 C-1.637 20.585 -3.992 18.536 -6.73 16.48 Z " fill="#2C4A7B" transform="translate(260.73046875,985.51953125)"></path>
<path d="M0 0 C0.514 -0.02 0.514 -0.02 3.117 -0.121 C7.312 0.658 8.539 2.057 11.125 5.438 C11.858 8.69 11.809 11.874 11.772 15.197 C11.776 15.686 11.776 15.686 11.799 18.16 C11.821 21.389 11.806 24.615 11.789 27.844 C11.792 30.089 11.797 32.334 11.804 34.58 C11.811 39.284 11.8 43.988 11.777 48.692 C11.748 54.722 11.765 60.75 11.795 66.78 C11.813 71.416 11.807 76.051 11.794 80.687 C11.791 82.911 11.795 85.134 11.806 87.357 C11.819 90.464 11.8 93.57 11.772 96.678 C11.782 97.596 11.792 98.515 11.803 99.461 C11.728 103.944 11.576 105.849 8.768 109.508 C4.209 112.836 -0.471 112.26 -5.875 111.438 C-9.554 109.345 -10.545 108.426 -11.875 104.438 C-11.969 103.103 -12.01 101.765 -12.015 100.428 C-12.021 99.615 -12.027 98.802 -12.033 97.964 C-12.034 97.076 -12.035 96.187 -12.036 95.272 C-12.041 94.333 -12.046 93.395 -12.051 92.428 C-12.066 89.319 -12.073 86.21 -12.078 83.102 C-12.084 80.943 -12.09 78.785 -12.095 76.626 C-12.106 72.098 -12.112 67.571 -12.115 63.043 C-12.121 57.24 -12.145 51.437 -12.173 45.634 C-12.192 41.175 -12.197 36.716 -12.199 32.257 C-12.202 30.117 -12.21 27.978 -12.223 25.838 C-12.24 22.846 -12.238 19.854 -12.231 16.862 C-12.241 15.977 -12.25 15.093 -12.259 14.182 C-12.227 9.452 -11.993 6.25 -8.875 2.438 C-5.484 0.177 -4.001 0.085 0 0 Z " fill="#2C4A7B" transform="translate(550.875,998.5625)"></path>
<path d="M0 0 C2.19 4.978 3.52 9.831 4.5 15.188 C4.717 16.357 4.933 17.526 5.156 18.73 C5 22 5 22 2.73 24.898 C0 27 0 27 -3.188 27.438 C-6 27 -6 27 -8 25 C-8.636 22.614 -9.168 20.296 -9.625 17.875 C-9.754 17.198 -9.883 16.521 -10.016 15.823 C-10.881 11.077 -11.645 6.79 -11 2 C-7.923 -2.062 -4.599 -0.973 0 0 Z " fill="#2C4A7B" transform="translate(238,1070)"></path>
<path d="M0 0 C2.533 0.05 3.868 0.114 6.125 1.312 C9.255 7.377 6.171 14.284 4.391 20.359 C3.028 23.471 2.097 24.662 -0.875 26.25 C-4.548 26.03 -6.245 25.88 -8.875 23.25 C-9.293 17.929 -8.381 13.429 -6.938 8.375 C-6.755 7.7 -6.573 7.024 -6.385 6.328 C-4.722 0.305 -4.722 0.305 0 0 Z " fill="#2C4A7B" transform="translate(271.875,1067.75)"></path>
</svg>